<svg xmlns="http://www.w3.org/2000/svg" xmlns:xlink="http://www.w3.org/1999/xlink" version="1.1" x="0px" y="0px" viewBox="0 0 100 125" style="enable-background:new 0 0 100 100;" xml:space="preserve"><style type="text/css">
	.st0{fill:none;stroke:#000000;stroke-width:3;stroke-miterlimit:10;}
</style><g><path class="st0" d="M66,26.7"/><path class="st0" d="M34.1,26.7"/><g><g><ellipse class="st0" cx="50.3" cy="33" rx="16.5" ry="21.5"/><path class="st0" d="M43,51.8c-0.1,1.1-0.5,2.5-1.4,4l8.2,8.2l9.2-8.2c-0.9-1.5-1.3-2.9-1.4-4"/><path class="st0" d="M64.6,60.8c1.2,0.6,2.3,1,2.9,1.3c5.7,0,10.3,3.6,10.3,8v20.7H50.3H22.7V70.1c0-4.4,4.6-8,10.3-8     c0.7-0.2,1.8-0.6,3-1.3"/></g><path d="M40.7,29.5c3.1-0.3,7.9,9,6,11c-1.4,1.4-7.6,0.2-8.8-4.2C37.2,33.3,38.9,29.7,40.7,29.5z"/><path d="M59.8,29.5c-3.1-0.3-7.9,9-6,11c1.4,1.4,7.6,0.2,8.8-4.2C63.4,33.3,61.7,29.7,59.8,29.5z"/><g><path class="st0" d="M67,38.6c5.8,0.6,11.5,1.5,17.2,2.6c-13.7,11-25.1,23.7-33.9,37.2c-8.8-13.6-20.2-26.3-34-37.2     c5.6-1.2,11.2-2,16.8-2.6"/></g></g></g><text x="0" y="115" fill="#000000" font-size="5px" font-weight="bold" font-family="'Helvetica Neue', Helvetica, Arial-Unicode, Arial, Sans-serif">Created by Nathan Newell Griffith</text><text x="0" y="120" fill="#000000" font-size="5px" font-weight="bold" font-family="'Helvetica Neue', Helvetica, Arial-Unicode, Arial, Sans-serif">from the Noun Project</text></svg>