<svg xmlns="http://www.w3.org/2000/svg" xmlns:xlink="http://www.w3.org/1999/xlink" viewBox="0 0 56 75" version="1.1" x="0px" y="0px"><title>17 -Mirror- (Outline)</title><desc>Created with Sketch.</desc><g stroke="none" stroke-width="1" fill="none" fill-rule="evenodd"><g transform="translate(-842.000000, -460.000000)" fill="#000000"><g transform="translate(842.000000, 460.000000)"><path d="M50,58 L54,58 L54,56 L50,56 L50,58 Z M55,60 L49,60 C48.447,60 48,59.552 48,59 L48,55 C48,54.448 48.447,54 49,54 L55,54 C55.553,54 56,54.448 56,55 L56,59 C56,59.552 55.553,60 55,60 L55,60 Z"/><path d="M52,56 C51.447,56 51,55.552 51,55 L51,31 C51,30.448 51.447,30 52,30 C52.553,30 53,30.448 53,31 L53,55 C53,55.552 52.553,56 52,56"/><path d="M49,29 L44,29 C43.447,29 43,28.552 43,28 C43,27.448 43.447,27 44,27 L49,27 C49.553,27 50,27.448 50,28 C50,28.552 49.553,29 49,29"/><path d="M52,26 C50.897,26 50,26.897 50,28 C50,29.103 50.897,30 52,30 C53.103,30 54,29.103 54,28 C54,26.897 53.103,26 52,26 M52,32 C49.794,32 48,30.206 48,28 C48,25.794 49.794,24 52,24 C54.206,24 56,25.794 56,28 C56,30.206 54.206,32 52,32"/><path d="M2,58 L6,58 L6,56 L2,56 L2,58 Z M7,60 L1,60 C0.447,60 0,59.552 0,59 L0,55 C0,54.448 0.447,54 1,54 L7,54 C7.553,54 8,54.448 8,55 L8,59 C8,59.552 7.553,60 7,60 L7,60 Z"/><path d="M4,56 C3.447,56 3,55.552 3,55 L3,31 C3,30.448 3.447,30 4,30 C4.553,30 5,30.448 5,31 L5,55 C5,55.552 4.553,56 4,56"/><path d="M12,29 L7,29 C6.447,29 6,28.552 6,28 C6,27.448 6.447,27 7,27 L12,27 C12.553,27 13,27.448 13,28 C13,28.552 12.553,29 12,29"/><path d="M4,26 C2.897,26 2,26.897 2,28 C2,29.103 2.897,30 4,30 C5.103,30 6,29.103 6,28 C6,26.897 5.103,26 4,26 M4,32 C1.794,32 0,30.206 0,28 C0,25.794 1.794,24 4,24 C6.206,24 8,25.794 8,28 C8,30.206 6.206,32 4,32"/><path d="M16.8535,5.0107 C16.7145,5.0107 16.5765,5.0197 16.4385,5.0387 C14.4775,5.3087 12.9995,7.0957 12.9995,9.1977 L12.9995,51.5767 C12.9995,52.9127 14.0865,53.9997 15.4225,53.9997 L40.5775,53.9997 C41.9135,53.9997 42.9995,52.9127 42.9995,51.5767 L42.9995,9.1977 C42.9995,7.0957 41.5225,5.3087 39.5615,5.0387 C38.1135,4.8417 36.5685,5.7417 35.7475,6.6647 C35.5215,6.9167 35.1825,7.0367 34.8505,6.9887 C34.5165,6.9387 34.2305,6.7217 34.0895,6.4147 C32.8315,3.6507 30.5535,1.9997 27.9995,1.9997 C25.4465,1.9997 23.1685,3.6507 21.9105,6.4147 C21.7695,6.7217 21.4835,6.9387 21.1495,6.9887 C20.8145,7.0367 20.4775,6.9167 20.2525,6.6647 C19.5095,5.8287 18.1755,5.0107 16.8535,5.0107 M40.5775,55.9997 L15.4225,55.9997 C12.9845,55.9997 10.9995,54.0157 10.9995,51.5767 L10.9995,9.1977 C10.9995,6.1017 13.2205,3.4627 16.1665,3.0577 C17.8225,2.8287 19.4885,3.4807 20.7185,4.3987 C22.3935,1.6557 25.0885,-0.0003 27.9995,-0.0003 C30.9115,-0.0003 33.6065,1.6557 35.2815,4.3987 C36.5115,3.4797 38.1745,2.8267 39.8345,3.0577 C42.7795,3.4627 44.9995,6.1017 44.9995,9.1977 L44.9995,51.5767 C44.9995,54.0157 43.0155,55.9997 40.5775,55.9997"/><path d="M17,50 L39,50 L39,11 L17,11 L17,50 Z M40,52 L16,52 C15.447,52 15,51.552 15,51 L15,10 C15,9.448 15.447,9 16,9 L40,9 C40.553,9 41,9.448 41,10 L41,51 C41,51.552 40.553,52 40,52 L40,52 Z"/><path d="M23,36 C22.744,36 22.488,35.902 22.293,35.707 C21.902,35.316 21.902,34.684 22.293,34.293 L32.293,24.293 C32.684,23.902 33.316,23.902 33.707,24.293 C34.098,24.684 34.098,25.316 33.707,25.707 L23.707,35.707 C23.512,35.902 23.256,36 23,36"/><path d="M23,31 C22.744,31 22.488,30.902 22.293,30.707 C21.902,30.316 21.902,29.684 22.293,29.293 L27.293,24.293 C27.684,23.902 28.316,23.902 28.707,24.293 C29.098,24.684 29.098,25.316 28.707,25.707 L23.707,30.707 C23.512,30.902 23.256,31 23,31"/><path d="M29,35 C28.744,35 28.488,34.902 28.293,34.707 C27.902,34.316 27.902,33.684 28.293,33.293 L31.293,30.293 C31.684,29.902 32.316,29.902 32.707,30.293 C33.098,30.684 33.098,31.316 32.707,31.707 L29.707,34.707 C29.512,34.902 29.256,35 29,35"/><path d="M28,36 C28,36.552 27.553,37 27,37 C26.447,37 26,36.552 26,36 C26,35.448 26.447,35 27,35 C27.553,35 28,35.448 28,36"/></g></g></g><text x="0" y="75" fill="#000000" font-size="5px" font-weight="bold" font-family="'Helvetica Neue', Helvetica, Arial-Unicode, Arial, Sans-serif">Created by Ben Davis</text><text x="0" y="80" fill="#000000" font-size="5px" font-weight="bold" font-family="'Helvetica Neue', Helvetica, Arial-Unicode, Arial, Sans-serif">from the Noun Project</text></svg>