<svg xmlns="http://www.w3.org/2000/svg" data-name="Layer 1" viewBox="0 0 96 120" x="0px" y="0px"><title>Artboard 105</title><path d="M93.3335,38.5166a6.18027,6.18027,0,0,0-3.688-3.21094,5.79,5.79,0,0,0-4.61914.49219l-4.74414,2.65723-.16407-2.26172a35.24492,35.24492,0,0,0-9.35449-24.11328A30.93335,30.93335,0,0,0,48,2C30.3125,2,15.919,17.332,15.88184,36.19336l-.16407,2.26172-4.7373-2.65332a5.80685,5.80685,0,0,0-4.626-.4961,6.17816,6.17816,0,0,0-3.68652,3.208A6.68555,6.68555,0,0,0,2,41.42969a6.4363,6.4363,0,0,0,3.03711,5.543l6.35059,5.3164a8.58141,8.58141,0,0,1,2.93457,7.32129L12.71,83.69629a2.00028,2.00028,0,0,0,2.80762,1.96191,5.67118,5.67118,0,0,1,2.35058-.458c2.84375,0,4.24073,1.63281,6.00977,3.70019C25.82178,91.17188,28.24121,94,32.92725,94c4.68554,0,7.105-2.82715,9.04882-5.09961,1.76905-2.06738,3.166-3.70019,6.01026-3.70019,2.84375,0,4.24072,1.63281,6.00976,3.70019C55.93994,91.17188,58.35938,94,63.04541,94s7.10547-2.82812,9.04932-5.09961c1.769-2.06738,3.166-3.70019,6.00976-3.70019a5.60064,5.60064,0,0,1,2.36182.46582A1.99994,1.99994,0,0,0,83.29,83.71191L81.6748,59.58105a8.56923,8.56923,0,0,1,2.937-7.292l6.35107-5.3164A6.43521,6.43521,0,0,0,94,41.42969,6.68276,6.68276,0,0,0,93.3335,38.5166ZM88.83691,43.583a1.931,1.931,0,0,0-.311.21387L82.044,49.22266A12.55577,12.55577,0,0,0,77.686,59.87793l1.42968,21.36621c-.32861-.0293-.665-.04394-1.01123-.04394-4.68554,0-7.105,2.82714-9.04883,5.0996C67.28662,88.36719,65.88965,90,63.04541,90s-4.24121-1.63281-6.01025-3.7002c-1.94385-2.27246-4.36328-5.0996-9.04883-5.0996-4.686,0-7.10547,2.82812-9.04932,5.0996C37.168,88.36719,35.771,90,32.92725,90,30.083,90,28.686,88.36719,26.917,86.2998c-1.94385-2.27246-4.36328-5.0996-9.04883-5.0996q-.501,0-.98486.04394L18.311,59.90723a12.5674,12.5674,0,0,0-4.356-10.68457l-6.481-5.42578a1.931,1.931,0,0,0-.311-.21387A2.45758,2.45758,0,0,1,6,41.42969a2.66608,2.66608,0,0,1,.26416-1.165A2.1422,2.1422,0,0,1,7.54443,39.124a1.85213,1.85213,0,0,1,1.47412.16407l7.48877,4.19433a2.00029,2.00029,0,0,0,2.97217-1.60058l.397-5.47071c.00342-.04785.00538-.09668.00538-.14453C19.88184,19.57715,32.49561,6,48,6a26.97284,26.97284,0,0,1,19.83984,8.81055,31.25712,31.25712,0,0,1,8.27832,21.456c0,.04785.002.09668.00538.14453l.397,5.47071a2.00029,2.00029,0,0,0,2.97217,1.60058l7.4956-4.19824a1.8323,1.8323,0,0,1,1.46729-.16016,2.14451,2.14451,0,0,1,1.28173,1.14356A2.66329,2.66329,0,0,1,90,41.42969,2.45758,2.45758,0,0,1,88.83691,43.583Z"/><path d="M63.84039,42.822a.05075.05075,0,0,0-.03021.00513l-.8667.45044-1.07666.55957c-.35144.19409-.51819.57519-.81543.82422l-.83923.82776-3.414-.9a2.00771,2.00771,0,0,0-1.52625.21118l-3.12817,1.84546L48.809,45.1709a2.01144,2.01144,0,0,0-1.63153.0061l-3.38983,1.52918-3.25488-1.7721a2.007,2.007,0,0,0-1.52887-.15991l-3.40039,1.01538-.8324-.80517c-.30683-.241-.47138-.62916-.84027-.80591l-1.08979-.54834-.7138-.40357c-.81275.03052-1.62671.06568-2.45.1355q-1.22855.0813-2.47724.238,1.00461.75768,2.02942,1.44043c.679.4707,1.36719.90674,2.05664,1.33813l-.71344-.40332.58393,1.0708c.189.3628.58239.51441.83343.81324l1.25793,1.21679A18.1766,18.1766,0,0,0,32.6991,51.395a13.46616,13.46616,0,0,0-.13788,2.8811A9.8049,9.8049,0,0,0,33.16052,57a9.88759,9.88759,0,0,1,1.4328-4.96313A15.8626,15.8626,0,0,1,36.04388,49.969c.05066-.06066.10572-.12219.15809-.18347L39.3512,48.845l3.39666,1.84937a2.01773,2.01773,0,0,0,1.77893.06665l3.48145-1.57056,3.45752,1.5293a2.01923,2.01923,0,0,0,1.82532-.10669l3.29449-1.94336,1.79779.474c.253.26806.50324.54968.73328.82531a15.8626,15.8626,0,0,1,1.45056,2.06788A9.88759,9.88759,0,0,1,62,57a9.80455,9.80455,0,0,0,.5993-2.72388,13.46679,13.46679,0,0,0-.13787-2.8811,18.13215,18.13215,0,0,0-.48127-2.08521,1.9225,1.9225,0,0,0,.22913-.17236l1.65094-1.62817c.25305-.29395.6366-.45532.83545-.804l.5708-1.0625c.42938-.21826.858-.4414,1.28375-.68213q1.08564-.58263,2.15686-1.25366-1.22908-.29774-2.4433-.50366C65.45105,43.0459,64.64569,42.93384,63.84039,42.822Z"/><path d="M32.5592,32.50024c-.18786-.176-.4132-.37133-.42083-.58422-.0141-.19068.17175-.32789.37652-.43946a5.304,5.304,0,0,1,1.418-.44653,26.04126,26.04126,0,0,1,3.087-.38208c2.07733-.14941,4.20324-.1936,6.264-.168l-.56891-3.95923c-1.06634.32642-2.08.66895-3.10913,1.0293-1.02392.36255-2.04193.7395-3.05066,1.15283a27.40637,27.40637,0,0,0-2.97833,1.39258,5.86817,5.86817,0,0,0-1.38061.99585.87327.87327,0,0,0-.29932.88916C32.04065,32.30029,32.32947,32.3811,32.5592,32.50024Z"/><path d="M62.0672,31.03a5.3047,5.3047,0,0,1,1.418.44653c.20477.11157.39062.24878.37646.43946-.00763.21289-.233.4082-.42083.58422.22973-.11914.51861-.2.66235-.51977a.87327.87327,0,0,0-.29932-.88916,5.86694,5.86694,0,0,0-1.38061-.99585A27.41077,27.41077,0,0,0,59.445,28.70288c-1.00879-.41333-2.0268-.79028-3.05066-1.15283-1.02918-.36035-2.04285-.70288-3.10919-1.0293L52.71625,30.48c2.06067-.02563,4.18658.01856,6.264.168A26.04126,26.04126,0,0,1,62.0672,31.03Z"/><text x="0" y="111" fill="#000000" font-size="5px" font-weight="bold" font-family="'Helvetica Neue', Helvetica, Arial-Unicode, Arial, Sans-serif">Created by Adi Kurniawan</text><text x="0" y="116" fill="#000000" font-size="5px" font-weight="bold" font-family="'Helvetica Neue', Helvetica, Arial-Unicode, Arial, Sans-serif">from the Noun Project</text></svg>