<svg xmlns="http://www.w3.org/2000/svg" data-name="Layer 1" viewBox="0 0 64 80" x="0px" y="0px"><path d="M3.243,54.97l8.242-2.061L7.9,61.619l1.85.762L13.9,52.307l1.1-.276,7.854,1.963,8.471,7.744a1,1,0,0,0,1.35,0l8.471-7.744L49,52.031l1.1.276,4.148,10.074,1.85-.762-3.586-8.71,8.242,2.061A1,1,0,0,0,61.8,53.4l-7.5-10a16.061,16.061,0,0,0-11.142-6.3l3.184-1.158a1.011,1.011,0,0,0,.417-.289l6-7a1,1,0,0,0,.179-1l-7-19a1,1,0,0,0-.519-.562l-13-6a1,1,0,0,0-.838,0l-13,6a1,1,0,0,0-.519.562l-7,19a1,1,0,0,0,.179,1l6,7a1.011,1.011,0,0,0,.417.289L20.844,37.1A16.08,16.08,0,0,0,9.7,43.4l-7.5,10a1,1,0,0,0,1.043,1.57ZM32,59.645l-5.106-4.668a.991.991,0,0,0,1.055-.661L32,42.162l4.051,12.154A1,1,0,0,0,37,55c.031,0,.062-.009.094-.012ZM29.509,38,22,27.675v-6.3l10-4.286,10,4.286v6.3L34.491,38ZM49.243,50.03a1,1,0,0,0-.486,0l-11.1,2.775-.384-1.15L48.988,48.05l8.4,2.8,1.122,1.5ZM41.5,39a14.066,14.066,0,0,1,11.2,5.6l2.579,3.439-5.963-1.988a1.008,1.008,0,0,0-.61-.007L36.64,49.757,33.388,40H35a1.019,1.019,0,0,0,.342-.06L38.485,38.8ZM13.141,27.8,19.8,9.734,32,4.1l12.2,5.632L50.859,27.8,45.412,34.15l-7.679,2.792,6.076-8.354A1,1,0,0,0,44,28V22.231l1.606.688.788-1.838-14-6a1,1,0,0,0-.788,0l-14,6,.788,1.838L20,22.231V28a1,1,0,0,0,.191.588l6.076,8.354L18.588,34.15ZM11.3,44.6A14.083,14.083,0,0,1,22.536,39l3.222-.115,2.9,1.055A1.013,1.013,0,0,0,29,40v0h1.612L27.36,49.757,15.294,46.044a.993.993,0,0,0-.61.007L8.721,48.039ZM6.612,50.85l8.4-2.8,11.716,3.605-.384,1.15-11.1-2.775a1,1,0,0,0-.486,0L5.49,52.347Z"/><path d="M35.707,32.707l1-1-1.414-1.414L34.586,31H28v2h7A1,1,0,0,0,35.707,32.707Z"/><path d="M36.8,23.98A.932.932,0,0,0,37,24a1,1,0,0,0,.316-.051l3-1-.632-1.9-2.748.916L32.2,21.02a.959.959,0,0,0-.392,0l-4.74.947-2.748-.916-.632,1.9,3,1a1.01,1.01,0,0,0,.512.031l4.8-.96Z"/><rect x="31" y="26" width="2" height="3"/><text x="0" y="79" fill="#000000" font-size="5px" font-weight="bold" font-family="'Helvetica Neue', Helvetica, Arial-Unicode, Arial, Sans-serif">Created by dDara</text><text x="0" y="84" fill="#000000" font-size="5px" font-weight="bold" font-family="'Helvetica Neue', Helvetica, Arial-Unicode, Arial, Sans-serif">from the Noun Project</text></svg>